{"title":"Goosebumps.2015.WEBRip.480.x264.AAC-VYTO [P2PDL]","uid":12919100,"size":401299455,"categoryP":"video","categoryS":"movies","magnet":"?xt=urn:btih:80f14eef67d32b907826f9969a475a631d1ec80f&amp;dn=Goosebumps.2015.WEBRip.480.x264.AAC-VYTO+%5BP2PDL%5D&amp;tr=udp%3A%2F%2Ftracker.leechers-paradise.org%3A6969&amp;tr=udp%3A%2F%2Fzer0day.ch%3A1337&amp;tr=udp%3A%2F%2Fopen.demonii.com%3A1337&amp;tr=udp%3A%2F%2Ftracker.coppersurfer.tk%3A6969&amp;tr=udp%3A%2F%2Fexodus.desync.com%3A6969","seeders":0,"leechers":2,"uploader":"VYTOP2PDL","files":7,"time":1449394421,"description":"____    ____ ____    ____ .___________.  ______   \r\n     /   /      /   / |           | /  __    \r\n    /   /      /   /  `---|  |----`|  |  |  | \r\n        /     _    _/       |  |     |  |  |  | \r\n       /        |  |         |  |     |  `--'  | \r\n    __/         |__|         |__|      ______/  \r\n                                                  \r\nPresenting Small Encodes with quality for years!\r\n                                                                                                   \r\n                                                                                                   \r\n\r\nGoosebumps.2015.WEBRip.480.x264.AAC-VYTO\r\n\r\n\r\nGenre: Action, Adventure, Sci-Fi    \nhttp://www.imdb.com/title/tt0478970/\r\n\r\n\r\nGeneral\r\nFormat                         : MPEG-4\r\nFile size                      : 377 MiB\r\nDuration                       : 1h 43mn\r\nOverall bit rate               : 511 Kbps\r\n\r\nVideo \r\nFormat                         : AVC\r\nBit rate                       : 475 Kbps\r\nWidth                          : 720 pixels\r\nHeight                         : 304 pixels\r\nDisplay aspect ratio           : 2.35:1\r\nFrame rate mode                : Constant\r\nFrame rate                     : 30.000 fps\r\nBit depth                      : 8 bits\r\nStream size                    : 350 MiB (93%)\r\nWriting library                : x264\r\n\r\nAudio\r\nFormat                         : AAC\r\nBit rate mode                  : Variable\r\nBit rate                       : 32.0 Kbps\r\nChannel(s)                     : 2 channels\r\nChannel positions              : Front: L R \r\nSampling rate                  : 48.0 KHz\r\nStream size                    : 23.6 MiB (6%)\r\nLanguage                       : English\r\n\r\nSubtitle                       : Yes (English)\r\n\r\nScreenshots:\r\n \nhttp://ititli.com/7J \nhttp://ititli.com/75 \nhttp://ititli.com/7B \nhttp://ititli.com/7N \nhttp://ititli.com/7P \nhttp://ititli.com/7f \nhttp://ititli.com/7u \nhttp://ititli.com/7v\r\n----------------------------------------------------------------------------------------------------\r\n\r\n\r\nEncoder Notes: Looking For Early Access To Anything You Can Provide WEBDL, DVDScr, DVDR, BluRay,\r\nDirect Audio, Music Releases and Seedboxes. If You Got anything to offer please contact us.\r\n\r\nSupport us by donating BC - 1FgwdzPsd1y25Gea8wP1qni35uGCtmkRCD","torrent":{"xt":"urn:btih:80f14eef67d32b907826f9969a475a631d1ec80f","amp;dn":"Goosebumps.2015.WEBRip.480.x264.AAC-VYTO+%5BP2PDL%5D","amp;tr":["udp%3A%2F%2Ftracker.leechers-paradise.org%3A6969","udp%3A%2F%2Fzer0day.ch%3A1337","udp%3A%2F%2Fopen.demonii.com%3A1337","udp%3A%2F%2Ftracker.coppersurfer.tk%3A6969","udp%3A%2F%2Fexodus.desync.com%3A6969"],"infoHash":"80f14eef67d32b907826f9969a475a631d1ec80f","infoHashBuffer":{"type":"Buffer","data":[128,241,78,239,103,211,43,144,120,38,249,150,154,71,90,99,29,30,200,15]},"announce":[],"urlList":[]}}